<svg id="图层_1" data-name="图层 1" xmlns="http://www.w3.org/2000/svg" viewBox="0 0 30.35 31.3"><defs><style>.cls-1{fill:#eb741b;}</style></defs><title>矢量智能对象</title><rect class="cls-1" x="5.14" y="16.7" width="4.18" height="1.93"/><rect class="cls-1" x="21.03" y="16.7" width="4.18" height="1.93"/><rect class="cls-1" x="13.09" y="16.7" width="4.18" height="1.93"/><rect class="cls-1" x="5.14" y="20.56" width="4.18" height="1.93"/><rect class="cls-1" x="21.03" y="20.56" width="4.18" height="1.93"/><rect class="cls-1" x="13.09" y="20.56" width="4.18" height="1.93"/><rect class="cls-1" x="5.14" y="24.43" width="4.18" height="1.93"/><rect class="cls-1" x="21.03" y="24.43" width="4.18" height="1.93"/><rect class="cls-1" x="13.09" y="24.43" width="4.18" height="1.93"/><path class="cls-1" d="M-434,141.55h-2.33v-1.1a2.48,2.48,0,0,0-2.5-2.45,2.48,2.48,0,0,0-2.5,2.45v1.1h-8v-1.1a2.48,2.48,0,0,0-2.5-2.45,2.48,2.48,0,0,0-2.5,2.45v1.1h-2.32a3.85,3.85,0,0,0-3.85,3.85v20a3.86,3.86,0,0,0,3.85,3.85H-434a3.86,3.86,0,0,0,3.85-3.85v-20A3.85,3.85,0,0,0-434,141.55Zm-6.33,0v-1.1a1.48,1.48,0,0,1,1.5-1.45,1.48,1.48,0,0,1,1.5,1.45v4.83a1.48,1.48,0,0,1-1.5,1.45,1.48,1.48,0,0,1-1.5-1.45Zm-13-1.1a1.48,1.48,0,0,1,1.5-1.45,1.48,1.48,0,0,1,1.5,1.45v4.83a1.48,1.48,0,0,1-1.5,1.45,1.48,1.48,0,0,1-1.5-1.45v-4.83Zm21.38,25A2.05,2.05,0,0,1-434,167.5H-456.7a2.05,2.05,0,0,1-2.05-2.05V152H-432Z" transform="translate(460.55 -138)"/></svg>